name C:\Users\antoi\Documents\MyRepositories\predsim_tutorial\Results\Case_1\motion.mot
datacolumns 124
datarows 4
range 0.83279948 0.90032377
endheader 
time	pelvis_tilt	pelvis_list	pelvis_rotation	pelvis_tx	pelvis_ty	pelvis_tz	hip_flexion_l	hip_adduction_l	hip_rotation_l	hip_flexion_r	hip_adduction_r	hip_rotation_r	knee_angle_l	knee_angle_r	ankle_angle_l	ankle_angle_r	subtalar_angle_l	subtalar_angle_r	mtp_angle_l	mtp_angle_r	lumbar_extension	lumbar_bending	lumbar_rotation	arm_flex_l	arm_add_l	arm_rot_l	arm_flex_r	arm_add_r	arm_rot_r	elbow_flex_l	elbow_flex_r	glut_med1_l/activation	glut_med2_l/activation	glut_med3_l/activation	glut_min1_l/activation	glut_min2_l/activation	glut_min3_l/activation	semimem_l/activation	semiten_l/activation	bifemlh_l/activation	bifemsh_l/activation	sar_l/activation	add_long_l/activation	add_brev_l/activation	add_mag1_l/activation	add_mag2_l/activation	add_mag3_l/activation	tfl_l/activation	pect_l/activation	grac_l/activation	glut_max1_l/activation	glut_max2_l/activation	glut_max3_l/activation	iliacus_l/activation	psoas_l/activation	quad_fem_l/activation	gem_l/activation	peri_l/activation	rect_fem_l/activation	vas_med_l/activation	vas_int_l/activation	vas_lat_l/activation	med_gas_l/activation	lat_gas_l/activation	soleus_l/activation	tib_post_l/activation	flex_dig_l/activation	flex_hal_l/activation	tib_ant_l/activation	per_brev_l/activation	per_long_l/activation	per_tert_l/activation	ext_dig_l/activation	ext_hal_l/activation	ercspn_l/activation	intobl_l/activation	extobl_l/activation	glut_med1_r/activation	glut_med2_r/activation	glut_med3_r/activation	glut_min1_r/activation	glut_min2_r/activation	glut_min3_r/activation	semimem_r/activation	semiten_r/activation	bifemlh_r/activation	bifemsh_r/activation	sar_r/activation	add_long_r/activation	add_brev_r/activation	add_mag1_r/activation	add_mag2_r/activation	add_mag3_r/activation	tfl_r/activation	pect_r/activation	grac_r/activation	glut_max1_r/activation	glut_max2_r/activation	glut_max3_r/activation	iliacus_r/activation	psoas_r/activation	quad_fem_r/activation	gem_r/activation	peri_r/activation	rect_fem_r/activation	vas_med_r/activation	vas_int_r/activation	vas_lat_r/activation	med_gas_r/activation	lat_gas_r/activation	soleus_r/activation	tib_post_r/activation	flex_dig_r/activation	flex_hal_r/activation	tib_ant_r/activation	per_brev_r/activation	per_long_r/activation	per_tert_r/activation	ext_dig_r/activation	ext_hal_r/activation	ercspn_r/activation	intobl_r/activation	extobl_r/activation	
          0.83279948	         -7.94207378	          0.59127200	         -4.68327746	          1.11020569	          0.92606855	         -0.00381435	         10.84160833	          4.78972150	          7.55628632	         20.55576203	          0.83488826	         -2.64244457	        -11.27859935	        -52.43501082	          9.31497604	         15.25197720	         -8.05513665	          1.23617897	          4.29206142	          2.06743191	          2.89076898	         -1.61009937	          0.69111740	         -4.41331669	        -13.45009013	         19.36713985	         -2.59475475	        -13.44992832	         15.88113453	          7.89078046	         64.66028573	          0.37217354	          0.28637082	          0.27983624	          0.45347113	          0.46543022	          0.44786126	          0.07025185	          0.06584781	          0.05923112	          0.05000018	          0.05000046	          0.05000010	          0.05000019	          0.05000089	          0.05000178	          0.08668279	          0.09353920	          0.05000054	          0.05000045	          0.17145527	          0.09965036	          0.06781202	          0.05000006	          0.05000006	          0.05000027	          0.05000141	          0.28642734	          0.10366944	          0.11147316	          0.11019353	          0.09030017	          0.24674538	          0.23603410	          0.05000155	          0.27598271	          0.09014556	          0.06833718	          0.06718080	          0.05000145	          0.05000119	          0.05000317	          0.05000118	          0.05000421	          0.05000005	          0.05000006	          0.05000005	          0.05000005	          0.05000006	          0.05000006	          0.05000040	          0.05000031	          0.05000021	          0.05000012	          0.05000004	          0.05000002	          0.27399588	          0.31124597	          0.18216518	          0.19706451	          0.05000051	          0.05000020	          0.05000004	          0.48542835	          0.31623727	          0.10146720	          0.05000008	          0.05000003	          0.05000002	          0.14330776	          0.15560082	          0.13093273	          0.21108196	          0.05000028	          0.05000071	          0.05000010	          0.05000009	          0.05000006	          0.05000002	          0.05000005	          0.05000000	          0.05000007	          0.05000041	          0.05000029	          0.41469802	          0.20834131	          0.08319853	          0.55581053	          0.46332269	          0.54243245	          0.09557898	          0.06367584	          0.05905534	
          0.85530758	         -7.93744979	          0.02793621	         -3.73100378	          1.13651302	          0.92780652	         -0.00447350	          8.00837864	          4.21016051	          8.34754042	         23.71307191	          1.47242118	         -3.21631900	         -9.15860097	        -50.27497466	          8.87202227	         15.97014152	         -7.53649429	          0.31767969	          5.67065150	          1.48327900	          2.72128015	         -1.43384167	          0.45291634	         -2.37500581	        -13.44983232	         19.37438598	         -2.24097326	        -13.44971782	         15.50660457	         10.56934698	         57.98018096	          0.33382832	          0.25676380	          0.25408018	          0.43408738	          0.43914530	          0.42371593	          0.06467434	          0.05782152	          0.05254223	          0.05000023	          0.05000058	          0.05000009	          0.05000019	          0.05000081	          0.05000223	          0.06872557	          0.16832381	          0.05000052	          0.05000047	          0.15336913	          0.09177889	          0.05244123	          0.05000007	          0.05000007	          0.05000027	          0.05000154	          0.30410947	          0.09002549	          0.08690776	          0.08664361	          0.07350276	          0.29615838	          0.30094616	          0.05000023	          0.28433121	          0.09966924	          0.06708260	          0.06861962	          0.05000202	          0.05000107	          0.05000467	          0.05000288	          0.05000736	          0.05000005	          0.05000006	          0.05000005	          0.05000005	          0.05000007	          0.05000006	          0.05000036	          0.05000030	          0.05000022	          0.05000004	          0.05000003	          0.05000001	          0.19925021	          0.34176609	          0.20956370	          0.19409961	          0.05000046	          0.05000018	          0.05000004	          0.43639006	          0.27840329	          0.07378716	          0.05000008	          0.05000003	          0.05000003	          0.16484618	          0.17690151	          0.17001942	          0.24203981	          0.05000030	          0.05000015	          0.05000010	          0.05000008	          0.05000005	          0.05000003	          0.05000008	          0.05000001	          0.05000011	          0.05000056	          0.05000042	          0.42176021	          0.21312307	          0.10232787	          0.45427130	          0.45580617	          0.45731172	          0.09087086	          0.06818213	          0.06830668	
          0.87781567	         -7.93755859	         -0.52075264	         -2.72191785	          1.16297933	          0.92851470	         -0.00507386	          5.17438709	          3.55179453	          9.05969146	         26.52109398	          1.99542966	         -3.74002477	         -7.00628411	        -47.10914725	          8.43745748	         16.08470813	         -6.98587298	         -0.52401203	          7.13208815	          1.07291735	          2.57463925	         -1.26782597	          0.21352511	         -0.52107503	        -13.44985302	         19.20916933	         -1.81020499	        -13.44985139	         15.34875478	         14.05400685	         50.92388691	          0.30342183	          0.22893092	          0.22614043	          0.42073227	          0.42412779	          0.41280039	          0.05600283	          0.05006220	          0.05000106	          0.05000034	          0.05000089	          0.05000010	          0.05000019	          0.05000069	          0.05000167	          0.05000268	          0.23588439	          0.05000054	          0.05000052	          0.12106094	          0.07236775	          0.05000106	          0.05000009	          0.05000009	          0.05000026	          0.05000166	          0.32506738	          0.06546733	          0.06320097	          0.06300876	          0.05345250	          0.34655811	          0.36742773	          0.05000022	          0.29400005	          0.11518380	          0.07533507	          0.08365550	          0.05000134	          0.05000062	          0.05000377	          0.05000229	          0.05000816	          0.05000005	          0.05000006	          0.05000005	          0.05000005	          0.05000007	          0.05000007	          0.05000035	          0.05000031	          0.05000024	          0.05000002	          0.05000003	          0.05000001	          0.14489505	          0.37710586	          0.24019882	          0.19072885	          0.05000043	          0.05000017	          0.05000004	          0.39217648	          0.23846976	          0.05365824	          0.05000008	          0.05000004	          0.05000003	          0.19393158	          0.20230206	          0.21022186	          0.25836124	          0.05000032	          0.05000009	          0.05000007	          0.05000006	          0.05000003	          0.05000005	          0.05000011	          0.05000002	          0.05000017	          0.05000074	          0.05000061	          0.42407164	          0.21576457	          0.11806304	          0.33941929	          0.46540039	          0.36308545	          0.08874079	          0.07783669	          0.07168383	
          0.90032377	         -7.94395400	         -1.04771088	         -1.67802642	          1.18970668	          0.92809776	         -0.00560712	          2.36218151	          2.82866335	          9.68689740	         28.97509384	          2.40587054	         -4.21119332	         -4.88643304	        -43.12168212	          8.05751617	         15.75429700	         -6.40157093	         -1.26443126	          8.66084216	          0.78725192	          2.45328916	         -1.10934355	         -0.02614533	          1.04010026	        -13.45004653	         18.77792254	         -1.34635210	        -13.44990508	         15.45632292	         18.48828885	         43.64053755	          0.28466297	          0.21916663	          0.22269522	          0.44475845	          0.44825070	          0.41115435	          0.05000219	          0.05000107	          0.05000045	          0.16407871	          0.05000410	          0.05000010	          0.05000017	          0.05000050	          0.05000114	          0.05000065	          0.28849082	          0.05000053	          0.05000050	          0.09819953	          0.05268513	          0.05000046	          0.05000015	          0.05000012	          0.05000026	          0.05000234	          0.33484494	          0.05000098	          0.05000151	          0.05000134	          0.05000104	          0.39783796	          0.43512449	          0.05000158	          0.30317216	          0.12597453	          0.07940320	          0.09512405	          0.05000086	          0.05000103	          0.05000282	          0.06503619	          0.05000521	          0.05000005	          0.05000006	          0.05000005	          0.05000006	          0.05000008	          0.05000008	          0.05000035	          0.05000032	          0.05000026	          0.05000001	          0.05000003	          0.05000001	          0.10536790	          0.39765159	          0.26214588	          0.14339857	          0.05000043	          0.05000017	          0.05000004	          0.34919408	          0.19746659	          0.05000026	          0.05000009	          0.05000004	          0.05000003	          0.22010778	          0.22205404	          0.21350632	          0.27890761	          0.05000040	          0.05000008	          0.05000008	          0.05000006	          0.05000003	          0.05000005	          0.05000011	          0.05000004	          0.05000021	          0.05000090	          0.05000075	          0.42192099	          0.21391718	          0.12781496	          0.26961064	          0.48926133	          0.27635667	          0.09133520	          0.08731923	          0.07065053	
